<?xml version="1.0" encoding="UTF-8" standalone="no"?>
<!-- Uploaded to: SVG Repo, www.svgrepo.com, Generator: SVG Repo Mixer Tools -->

<svg
   height="397.95105"
   width="230.72429"
   version="1.1"
   id="_x34_"
   viewBox="0 0 147.66354 254.68867"
   xml:space="preserve"
   sodipodi:docname="key-error.svg"
   inkscape:version="1.2.2 (b0a8486541, 2022-12-01)"
   xmlns:inkscape="http://www.inkscape.org/namespaces/inkscape"
   xmlns:sodipodi="http://sodipodi.sourceforge.net/DTD/sodipodi-0.dtd"
   xmlns="http://www.w3.org/2000/svg"
   xmlns:svg="http://www.w3.org/2000/svg"><defs
   id="defs4438" /><sodipodi:namedview
   id="namedview4436"
   pagecolor="#ffffff"
   bordercolor="#000000"
   borderopacity="0.25"
   inkscape:showpageshadow="2"
   inkscape:pageopacity="0.0"
   inkscape:pagecheckerboard="0"
   inkscape:deskcolor="#d1d1d1"
   showgrid="false"
   inkscape:zoom="1.0975"
   inkscape:cx="248.29157"
   inkscape:cy="137.58542"
   inkscape:window-width="1920"
   inkscape:window-height="1048"
   inkscape:window-x="0"
   inkscape:window-y="0"
   inkscape:window-maximized="1"
   inkscape:current-layer="_x34_" />
<g
   id="g4433"
   transform="matrix(0.56409558,0,0,0.56409558,-3.6302703,-39.08411)">
	<polygon
   style="fill:#e2c85b"
   points="182.854,449.002 182.854,467.565 156.017,492.734 148.508,499.756 136.063,511.367 135.368,511.992 94.069,511.992 94.069,226.03 136.063,223.666 169.088,221.859 169.088,316.971 192.31,340.193 168.184,364.318 187.512,364.318 187.512,403.044 165.334,425.223 165.334,449.002 "
   id="polygon4421" />
	
	<path
   style="fill:#e2c85b;stroke-width:0.743132"
   d="M 224.15019,136.92565 C 213.9195,113.05551 194.80318,93.886433 170.88103,83.656483 c -12.19405,-5.21827 -25.6269,-8.111282 -39.73228,-8.111282 -55.852282,0 -101.112715,45.260429 -101.112715,101.112719 0,44.95055 29.347012,83.02936 69.905649,96.20434 9.816766,3.20364 20.305326,4.90838 31.207066,4.90838 8.47319,0 16.68851,-1.03369 24.54192,-3.04832 0.25787,0 0.46446,-0.052 0.72307,-0.15457 1.96336,-0.4652 3.87543,-1.0337 5.78677,-1.65347 1.18827,-0.36191 2.32451,-0.77509 3.51352,-1.24029 0.15458,-0.052 0.30989,-0.10329 0.41319,-0.15531 1.18826,-0.41318 2.37653,-0.87838 3.5648,-1.39486 3.20364,-1.29156 6.35526,-2.78972 9.40359,-4.44319 1.18826,-0.61977 2.37653,-1.34358 3.5648,-2.01537 1.18827,-0.72307 2.37653,-1.44688 3.51352,-2.22196 1.18827,-0.72307 2.32526,-1.49816 3.41024,-2.32526 0.98167,-0.67179 1.91133,-1.34284 2.84173,-2.06665 1.39486,-1.0337 2.73844,-2.11867 4.08202,-3.25492 1.96336,-1.70548 3.87469,-3.4615 5.73549,-5.27029 0.98168,-0.9304 1.96336,-1.91207 2.84174,-2.94503 0.92966,-0.98167 1.86006,-2.01463 2.73844,-3.04832 0.92966,-1.08498 1.75676,-2.11867 2.63514,-3.20364 0.87839,-1.08498 1.70549,-2.16995 2.47983,-3.25492 0.82711,-1.13699 1.6022,-2.27324 2.37654,-3.41023 0.77509,-1.13625 1.49815,-2.27324 2.22196,-3.46151 0.72307,-1.18827 1.39486,-2.37653 2.06665,-3.5648 0.5685,-0.98168 1.08497,-1.96336 1.55017,-2.94503 0.5685,-1.0337 1.08498,-2.06665 1.55018,-3.0996 0.4652,-0.92966 0.87838,-1.86006 1.29156,-2.84174 2.89301,-6.66515 5.0637,-13.6922 6.45856,-21.0284 0.25861,-1.18826 0.4652,-2.42855 0.61977,-3.66884 0.25861,-1.49815 0.4652,-3.04832 0.61977,-4.65051 0.052,-0.25861 0.052,-0.46521 0.052,-0.72307 0.20659,-1.60145 0.30989,-3.20364 0.3619,-4.80509 0.1033,-1.75676 0.15532,-3.46225 0.15532,-5.21827 -10e-4,-14.10464 -2.8945,-27.53749 -8.11277,-39.73153 z m -93.00144,18.7559 c -14.82845,0 -26.86718,-11.98672 -26.86718,-26.86719 0,-14.82845 12.03873,-26.86718 26.86718,-26.86718 14.82845,0 26.86718,12.03873 26.86718,26.86718 0,14.87973 -12.03873,26.86719 -26.86718,26.86719 z"
   id="path4425" />
	<polygon
   style="opacity:0.2;fill:#040000"
   points="131.472,304.002 131.472,511.356 130.792,512 114.004,512 114.004,304.002 "
   id="polygon4427" />
	<polygon
   style="opacity:0.2;fill:#040000"
   points="155.983,492.73 148.48,499.754 148.48,366.942 155.983,366.942 "
   id="polygon4429" />
	
</g>
<path
   style="fill:#ff0000;stroke:#ff0000;stroke-width:5.25385;stroke-dasharray:none;stroke-opacity:1"
   d="M 145.07988,1.2972996 2.2842367,252.72653 v 0"
   id="path7377" /><path
   style="fill:#ff0000;stroke:#ff0000;stroke-width:5.25385;stroke-dasharray:none;stroke-opacity:1"
   d="M 2.5836717,1.9621526 145.37931,253.39138 v 0"
   id="path7377-3" /></svg>
